<svg xmlns="http://www.w3.org/2000/svg" xmlns:xlink="http://www.w3.org/1999/xlink" fill="none" version="1.1" width="239.99998474121094" height="239.99998474121094" viewBox="0 0 239.99998474121094 239.99998474121094">
  <rect x="0" y="0" width="239.99998474121094" height="239.99998474121094" rx="40" fill="#ECFFDD"/>
  <g>
    <g>
      <rect x="58.8516845703125" y="89.14722442626953" width="12" height="90" rx="6" fill="#80D36D"/>
      <rect x="152.1585693359375" y="113.9999771118164" width="12" height="64.317138671875" rx="6" transform="matrix(0,1,-1,0,266.1585464477539,-38.158592224121094)" fill="#80D36D"/>
      <rect x="181.1483154296875" y="89.14722061157227" width="12" height="90" rx="6" transform="matrix(-1,0,0,1,362.296630859375,0)" fill="#80D36D"/>
      <g>
        <rect x="117.1077880859375" y="46.88545227050781" width="12.000000953674316" height="142.50967407226562" rx="6.000000476837158" transform="matrix(0.9063077569007874,0.42261824011802673,-0.4226182699203491,0.9063077569007874,30.78674007315385,-45.099084113048775)" fill="#37846E"/>
        <rect x="122.8922119140625" y="46.88545227050781" width="12.000000953674316" height="142.50967407226562" rx="6.000000476837158" transform="matrix(-0.9063077569007874,0.42261824011802673,0.4226182699203491,0.9063077569007874,214.45572811147758,-47.54368713138774)" fill="#37846E"/>
      </g>
      <g>
        <rect x="120.011962890625" y="158.78764724731445" width="12" height="90" rx="6" transform="matrix(0.7071067690849304,-0.7071067690849304,-0.7071067690849304,-0.7071067690849304,147.43051177514076,355.92873879409103)" fill="#364B44"/>
        <rect x="119.988037109375" y="158.78764724731445" width="12" height="90" rx="6" transform="matrix(-0.7071067690849304,-0.7071067690849304,0.7071067690849304,-0.7071067690849304,92.55257014298172,355.9118207122135)" fill="#364B44"/>
      </g>
    </g>
  </g>
</svg>